<svg width="692" height="553" viewBox="0 0 692 553" fill="none" xmlns="http://www.w3.org/2000/svg">
<g clip-path="url(#clip0_143_519)">
<path style="mix-blend-mode:multiply" d="M113.239 383.309C174.07 394.783 203.067 439.553 238.742 469.695C280.728 505.178 331.772 485.515 375.396 479.252C453.817 468.001 480.472 550.59 566.762 539.646C649.343 529.173 681.574 425.758 630.233 366.559C578.891 307.36 580.572 289.461 592.379 247.571C604.187 205.681 624.96 127.266 542.304 120.184C471.256 114.098 430.191 96.3519 398.915 65.508C367.638 34.664 252.458 -50.2651 198.729 78.7501C173.056 140.401 157.576 162.088 99.8903 177.903C42.205 193.718 1.86629 237.232 0.060429 286.506C-1.6477 333.202 31.9703 367.983 113.239 383.309Z" fill="url(#paint0_linear_143_519)"/>
<path style="mix-blend-mode:multiply" d="M373.511 59.3103C324.399 95.1375 269.758 99.8323 212.119 88.4002C154.481 76.968 106.257 74.8975 68.5577 128.922C30.858 182.947 44.9139 284.631 147.155 309.701C244.616 333.598 260.882 411.966 278.154 467.62C299.099 535.152 361.992 563.204 426.966 549.701C491.94 536.198 509.757 488.399 534.908 414.637C560.06 340.875 589.717 331.755 633.416 309.701C686.941 282.686 732.371 201.042 634.464 154.895C506.601 94.635 516.3 -44.8445 373.511 59.3103Z" fill="url(#paint1_linear_143_519)"/>
<g style="mix-blend-mode:hard-light">
<path d="M210.639 19.5421H550.868C556.979 19.5421 562.84 21.9692 567.162 26.2893C571.483 30.6095 573.911 36.4689 573.911 42.5785V139.88C573.911 145.991 571.483 151.851 567.161 156.172C562.838 160.493 556.976 162.921 550.863 162.921H210.634C204.523 162.921 198.662 160.494 194.34 156.174C190.019 151.853 187.591 145.994 187.591 139.884V42.5553C187.597 36.4489 190.028 30.5947 194.35 26.2795C198.672 21.9642 204.531 19.5409 210.639 19.5421Z" fill="#F4F4F4"/>
</g>
<path d="M352.674 330.546H207.823V335.389H352.674V330.546Z" fill="white"/>
<path d="M315.398 307.942H207.823V312.786H315.398V307.942Z" fill="url(#paint2_linear_143_519)"/>
<path d="M324.06 319.244H207.823V324.087H324.06V319.244Z" fill="url(#paint3_linear_143_519)"/>
<path d="M283.241 330.546H207.823V335.389H283.241V330.546Z" fill="url(#paint4_linear_143_519)"/>
<g style="mix-blend-mode:hard-light">
<path d="M136.292 170.686H344.883C349.418 170.686 353.768 172.487 356.974 175.693C360.181 178.899 361.983 183.247 361.983 187.781V375.841C361.983 378.086 361.542 380.31 360.682 382.384C359.823 384.458 358.564 386.343 356.976 387.931C355.388 389.518 353.502 390.777 351.428 391.636C349.353 392.495 347.129 392.937 344.883 392.936H136.296C131.761 392.936 127.412 391.135 124.205 387.929C120.998 384.723 119.196 380.375 119.196 375.841V187.781C119.196 185.536 119.638 183.314 120.496 181.24C121.355 179.166 122.614 177.281 124.202 175.694C125.789 174.106 127.674 172.847 129.748 171.988C131.823 171.129 134.046 170.686 136.292 170.686Z" fill="#F4F4F4"/>
</g>
<path d="M209.173 238.004C212.098 229.851 211.81 220.891 208.369 212.941C204.929 204.992 198.592 198.648 190.644 195.198C189.951 194.895 189.248 194.616 188.517 194.36C182.158 192.087 175.267 191.75 168.715 193.391C162.164 195.033 156.247 198.58 151.712 203.584C147.177 208.587 144.229 214.823 143.239 221.502C142.249 228.181 143.263 235.003 146.151 241.106C149.04 247.21 153.674 252.319 159.468 255.789C165.262 259.26 171.955 260.934 178.701 260.602C185.446 260.269 191.942 257.944 197.366 253.921C202.79 249.898 206.899 244.357 209.173 238V238.004ZM168.392 250.609C165.217 249.486 162.294 247.748 159.792 245.494C157.29 243.239 155.258 240.514 153.811 237.473C152.365 234.432 151.533 231.136 151.363 227.773C151.194 224.41 151.689 221.046 152.822 217.875C153.955 214.704 155.703 211.788 157.966 209.294C160.228 206.799 162.961 204.776 166.007 203.339C169.053 201.902 172.353 201.08 175.717 200.921C179.082 200.762 182.445 201.268 185.613 202.41C186.158 202.601 186.688 202.815 187.21 203.038C193.347 205.656 198.219 210.566 200.789 216.722C203.358 222.878 203.421 229.794 200.965 235.997C198.509 242.199 193.727 247.197 187.638 249.927C181.55 252.656 174.635 252.901 168.369 250.609H168.392Z" fill="#90C1FC"/>
<path d="M169.384 202.075L166.838 193.914C160.057 196.034 154.106 200.214 149.811 205.872C145.516 211.53 143.091 218.384 142.873 225.483L151.413 225.739C151.581 220.418 153.401 215.28 156.621 211.039C159.841 206.797 164.301 203.663 169.384 202.07V202.075Z" fill="#4372BD"/>
<path d="M187.242 203.038L190.654 195.202C189.96 194.9 189.257 194.621 188.527 194.365C181.545 191.847 173.93 191.683 166.847 193.9L169.393 202.056C174.702 200.391 180.41 200.509 185.646 202.391C186.181 202.601 186.711 202.815 187.242 203.038Z" fill="#4E85DE"/>
<path d="M199.148 200.497C196.592 198.321 193.726 196.536 190.645 195.202L187.242 203.038C189.552 204.039 191.701 205.376 193.619 207.007L199.148 200.497Z" fill="#72ACFB"/>
<path d="M317.869 307.318H306.02V347.901H317.869V307.318Z" fill="#72ACFB"/>
<path d="M300.248 318.699H288.398V347.896H300.248V318.699Z" fill="#72ACFB"/>
<path d="M334.96 288.507H323.11V347.896H334.96V288.507Z" fill="#72ACFB"/>
<path d="M333.052 258.835L332.842 257.556L301.565 262.679L291.424 284.282L257.703 286.571L246.78 302.679L221 302.037L220.967 303.336L247.455 303.996L258.42 287.823L292.275 285.524L302.45 263.846L333.052 258.835Z" fill="#72ACFB"/>
<path d="M294.826 204.755H328.533C329.554 204.755 330.533 204.35 331.256 203.628C331.978 202.907 332.385 201.928 332.386 200.907C332.386 199.885 331.98 198.905 331.258 198.183C330.535 197.46 329.555 197.054 328.533 197.054H294.826C294.32 197.054 293.819 197.154 293.352 197.348C292.885 197.541 292.46 197.825 292.103 198.183C291.745 198.541 291.462 198.966 291.269 199.433C291.076 199.9 290.976 200.401 290.977 200.907C290.977 201.927 291.383 202.906 292.104 203.628C292.826 204.349 293.805 204.755 294.826 204.755Z" fill="#4E85DE"/>
<path d="M294.826 218.197H328.532C329.555 218.197 330.535 217.791 331.258 217.069C331.98 216.346 332.386 215.366 332.386 214.344C332.386 213.323 331.98 212.343 331.258 211.62C330.535 210.898 329.555 210.492 328.532 210.492H294.826C293.805 210.493 292.826 210.9 292.104 211.622C291.382 212.344 290.977 213.323 290.977 214.344C290.977 215.365 291.382 216.345 292.104 217.067C292.826 217.789 293.805 218.196 294.826 218.197Z" fill="#72ACFB"/>
<path d="M294.826 231.635H328.532C329.555 231.635 330.535 231.229 331.258 230.506C331.98 229.784 332.386 228.804 332.386 227.782C332.386 226.76 331.98 225.78 331.258 225.058C330.535 224.335 329.555 223.929 328.532 223.929H294.826C293.805 223.931 292.826 224.337 292.104 225.059C291.382 225.782 290.977 226.761 290.977 227.782C290.977 228.803 291.382 229.782 292.104 230.505C292.826 231.227 293.805 231.633 294.826 231.635Z" fill="#72ACFB"/>
<path d="M233.818 211.418H214.54V210.683H233.51L243.661 200.535H256.093V201.274H243.969L233.818 211.418Z" fill="#72ACFB"/>
<path d="M252.086 245.081H227.278L219.24 237.046L219.766 236.525L227.585 244.342H252.086V245.081Z" fill="#72ACFB"/>
<path d="M271.21 205.43H245.495V208.584H271.21V205.43Z" fill="#4E85DE"/>
<path d="M258.355 237.595H237.653V240.75H258.355V237.595Z" fill="#4E85DE"/>
<path d="M64.8342 252.707C71.313 249.609 77.7592 270.226 77.7592 270.226C88.7713 284.771 104.158 265.419 102.655 287.167C100.021 325.213 146.461 299.129 125.037 338.851C103.614 378.573 143.953 361.31 130.623 393.341C117.293 425.371 134.565 463.6 114.528 447.873C114.528 447.873 96.8884 409.203 78.6901 397.24C60.4918 385.277 89.5857 371.077 83.8982 354.829C75.6275 331.225 55.7118 332.151 70.0703 306.788C84.4288 281.425 42.8194 263.242 64.8342 252.707Z" fill="url(#paint5_linear_143_519)"/>
<path d="M120.895 433.323C112.215 427.219 102.05 384.668 101.445 359.342C101.133 346.361 97.2933 340.954 93.9096 336.185C90.6516 331.62 87.859 327.679 89.502 318.639C92.6157 301.353 84.4335 293.89 84.3497 293.82L85.2806 292.741C85.6436 293.057 94.1656 300.753 90.8983 318.89C89.3763 327.344 91.885 330.876 95.0592 335.352C98.3917 340.047 102.539 345.886 102.86 359.31C103.511 386.501 113.9 426.674 121.705 432.16L120.895 433.323Z" fill="white"/>
<path d="M124.144 436.478C122.911 436.467 121.682 436.333 120.476 436.078C117.125 435.398 114.933 433.635 113.96 430.829C111.633 424.138 117.046 413.265 121.449 408.03C121.519 407.942 128.896 398.938 128.1 386.459C127.97 384.37 127.751 382.435 127.56 380.727C127.006 375.79 126.629 372.217 128.728 369.835C130.59 367.736 134.206 366.824 140.797 366.796C152.354 366.74 156.924 361.962 160.596 358.114C162.155 356.481 163.631 354.941 165.418 353.964C171.18 350.818 177.277 350.358 179.926 352.865C181.182 354.057 182.253 356.388 180.158 360.738C178.259 364.716 175.793 367.252 173.805 369.253C171.138 371.975 169.379 373.771 170.296 377.354C170.51 378.196 170.761 379.043 171.008 379.899C172.791 385.989 174.811 392.894 164.38 397.58C162.169 398.575 160.154 399.362 158.372 400.06C151.092 402.917 146.699 404.643 141.737 415.112C140.778 417.14 139.927 419.057 139.107 420.914C135.189 429.773 132.228 436.473 124.144 436.478ZM166.098 355.22C164.506 356.09 163.17 357.486 161.625 359.105C157.766 363.144 152.963 368.169 140.797 368.229C134.746 368.257 131.344 369.044 129.794 370.788C128.095 372.691 128.468 375.99 128.98 380.559C129.171 382.286 129.389 384.24 129.524 386.366C130.348 399.432 122.859 408.565 122.543 408.947C118.186 414.135 113.234 424.459 115.31 430.35C116.115 432.644 117.949 434.072 120.765 434.663C130.585 436.65 133.299 430.508 137.79 420.328C138.614 418.466 139.466 416.531 140.434 414.488C145.637 403.503 150.492 401.6 157.841 398.715C159.605 398.026 161.606 397.24 163.784 396.263C173.093 392.075 171.399 386.357 169.626 380.29C169.37 379.424 169.118 378.559 168.9 377.703C167.783 373.334 169.984 371.086 172.777 368.239C174.783 366.191 177.063 363.87 178.86 360.11C179.791 358.137 180.582 355.457 178.93 353.898C176.761 351.842 171.245 352.405 166.102 355.215L166.098 355.22Z" fill="url(#paint6_linear_143_519)"/>
<path d="M120.63 444.765L119.196 444.69C119.266 443.341 121.058 411.59 133.829 402.298C147.792 392.103 152.228 381.146 154.308 373.794C156.784 365.126 169.384 362.813 169.919 362.716L170.166 364.112C170.045 364.135 157.915 366.368 155.686 374.166C153.531 381.727 148.998 392.983 134.649 403.438C122.468 412.353 120.649 444.439 120.63 444.765Z" fill="url(#paint7_linear_143_519)"/>
<path d="M149.789 284.747C140.722 281.639 142.607 299.106 138.777 312.027C134.946 324.948 96.1669 317.666 112.448 350.023C128.728 382.379 91.8617 360.845 102.869 389.107C113.876 417.368 103.828 447.538 115.799 439.856C127.77 432.174 122.519 396.621 134.97 392.396C147.42 388.172 149.445 383.244 137.12 371.761C124.795 360.277 169.416 348.873 158.404 325.697C147.392 302.521 160.247 288.339 149.789 284.747Z" fill="url(#paint8_linear_143_519)"/>
<path d="M121.351 438.479C120.211 433.649 110.474 391.108 119.559 385.966C127.565 381.434 127.369 363.804 126.117 347.161C125.014 332.425 143.943 325.539 144.734 325.255L145.2 326.605C145.014 326.674 126.499 333.416 127.514 347.077C128.793 364.172 128.91 382.309 120.23 387.236C113.332 391.145 119.68 425.329 122.71 438.176L121.351 438.479Z" fill="white"/>
<path d="M141.956 423.338L129.012 472.417H100.095L87.1516 423.338H141.956Z" fill="#3E70FF"/>
<path d="M141.956 423.338C141.956 423.338 113.467 428.68 113.467 472.417H100.09L87.1748 423.338H141.956Z" fill="#3E70FF"/>
<path d="M222.889 359.575H182.118V361.994H222.889V359.575Z" fill="#DCD0C8"/>
<path d="M187.582 478.326H191.152V368.294H187.582V478.326Z" fill="#6D6865"/>
<path d="M244.844 358.891H216.504V362.348H244.844V358.891Z" fill="#C6BBB5"/>
<path d="M236.042 329.41H225.31V361.994H236.042V329.41Z" fill="#948C87"/>
<path d="M324.506 362.036H167.489V368.29H324.506V362.036Z" fill="#A98E75"/>
<path d="M137.357 324.166C137.357 324.166 135.635 348.24 140.345 351.125C143.292 352.931 155.044 359.035 154.695 360.161C154.346 361.287 148.062 370.318 148.062 370.318C148.062 370.318 125.484 355.457 124.754 350.776C124.046 346.203 125.866 315.526 128.97 314.112C131.298 313.051 132.522 313.925 135.449 316.103C139.564 319.151 137.357 324.166 137.357 324.166Z" fill="#3E70FF"/>
<path d="M165.134 463.316C165.134 463.316 164.431 468.187 164.343 468.899C164.255 469.611 156.533 468.466 156.533 468.466L155.909 462.664C155.909 462.664 164.166 462.613 165.134 463.316Z" fill="#454971"/>
<path d="M164.436 468.28C164.436 468.28 166.884 471.216 169.253 472.496C171.622 473.775 175.336 474.283 176.737 475.609C177.747 476.539 180.414 480.68 170.584 480.597C160.754 480.513 156.021 481.178 154.969 479.601C153.917 478.023 156.491 467.969 156.491 467.969C156.491 467.969 158.804 468.792 164.436 468.28Z" fill="#2E3048"/>
<path d="M214.605 463.348C214.605 463.348 213.907 468.215 213.813 468.932C213.72 469.648 206.004 468.499 206.004 468.499L205.38 462.697C205.38 462.697 213.641 462.66 214.605 463.348Z" fill="#454971"/>
<path d="M213.897 468.331C213.897 468.331 216.345 471.263 218.71 472.519C221.074 473.775 229.787 474.846 231.183 476.176C232.193 477.107 233.873 480.983 220.046 480.62C210.22 480.364 205.478 481.201 204.426 479.624C203.374 478.047 205.952 467.992 205.952 467.992C205.952 467.992 208.145 468.899 213.897 468.331Z" fill="#2E3048"/>
<path d="M140.234 379.15C140.234 379.15 168.308 383.9 174.675 384.896C181.043 385.892 215.396 394.444 219.696 397.049C223.117 399.124 217.9 448.943 216.68 467.955H203.136L202.159 410.933C185.906 411.338 174.312 407.137 162.477 408.933C150.641 410.729 140.778 413.279 133.262 403.196C133.252 403.196 132.95 381.355 140.234 379.15Z" fill="#2E3048"/>
<path d="M167.899 468.001L154.699 467.182L153.415 410.934C146.433 411.106 144.022 410.664 138.363 409.98L127.704 385.217C137.041 387.078 166.963 394.63 170.952 397.049C174.373 399.106 169.114 448.989 167.899 468.001Z" fill="#2E3048"/>
<path d="M153.149 273.943C153.149 273.943 163.44 271.1 167.368 279.085C171.297 287.069 169.514 302.21 164.329 303.638C159.144 305.066 151.683 303.419 149.528 298.45C147.373 293.481 145.656 286.418 146.173 281.839C146.689 277.261 150.417 275.041 153.149 273.943Z" fill="#DBA585"/>
<path d="M161.644 302.051C161.644 302.051 161.527 308.123 162.197 309.421C162.868 310.72 147.867 310.394 147.867 310.394C147.867 310.394 150.231 303.098 148.891 296.901C147.55 290.703 161.644 302.051 161.644 302.051Z" fill="#DBA585"/>
<path d="M148.076 294.583C148.076 294.583 148.881 296.212 152.763 295.951C156.645 295.691 161.769 291.005 163.417 290.587C165.064 290.168 165.162 289.233 165.162 289.233L166.032 290.777L167.722 291.038C167.722 291.038 166.577 286.343 169.076 284.691C171.576 283.04 167.95 269.728 155.29 272.938C155.29 272.938 145.628 274.711 145.516 280.104C145.405 285.496 146.205 291.727 148.076 294.583Z" fill="#3E4148"/>
<path d="M162.984 309.268C162.984 309.268 162.942 306.793 161.82 306.551C160.699 306.309 150.026 304.852 148.649 305.392L148.062 308.649C148.062 308.649 150.715 310.292 162.984 309.268Z" fill="#DCD0C8"/>
<path d="M166.07 288.125C165.781 286.097 163.477 283.765 162.155 286.925C160.834 290.084 163.049 294.686 164.529 294.439C166.009 294.193 166.461 290.875 166.07 288.125Z" fill="#DBA585"/>
<path d="M207.674 338.497C207.72 338.529 207.72 338.529 207.674 338.497V338.497Z" fill="#363957"/>
<path d="M150.147 275.4C150.147 275.4 137.581 274.809 147.955 294.393L150.147 275.4Z" fill="#3E4148"/>
<path d="M122.189 474.673L123.125 477.298L162.565 465.079L160.675 459.766L122.189 474.673Z" fill="#8C8581"/>
<path d="M163.915 420.346H159.433V463.213H163.915V420.346Z" fill="#8C8581"/>
<path d="M174.894 418.066H148.453V420.593H174.894V418.066Z" fill="#5D5955"/>
<path d="M201.503 474.673L200.572 477.298L161.132 465.079L162.868 459.43L201.503 474.673Z" fill="#8C8581"/>
<path d="M173.721 477.018V480.071L161.132 465.079L162.868 459.43L173.721 477.018Z" fill="#8C8581"/>
<path d="M205.189 478.321C205.189 479.05 204.973 479.763 204.568 480.369C204.163 480.975 203.587 481.447 202.914 481.726C202.24 482.005 201.499 482.078 200.784 481.935C200.069 481.793 199.412 481.442 198.896 480.927C198.381 480.412 198.03 479.755 197.887 479.04C197.745 478.325 197.818 477.584 198.097 476.911C198.376 476.238 198.849 475.662 199.455 475.257C200.061 474.852 200.774 474.636 201.503 474.636C202.48 474.636 203.418 475.024 204.109 475.715C204.801 476.407 205.189 477.344 205.189 478.321Z" fill="#B9AFAA"/>
<path d="M174.033 478.321C174.033 479.05 173.817 479.763 173.412 480.369C173.007 480.975 172.431 481.447 171.758 481.726C171.084 482.005 170.343 482.078 169.628 481.935C168.913 481.793 168.256 481.442 167.741 480.927C167.225 480.412 166.874 479.755 166.732 479.04C166.589 478.325 166.663 477.584 166.942 476.911C167.221 476.238 167.693 475.662 168.299 475.257C168.905 474.852 169.618 474.636 170.347 474.636C171.324 474.637 172.261 475.026 172.952 475.717C173.643 476.408 174.032 477.344 174.033 478.321Z" fill="#B9AFAA"/>
<path d="M125.875 478.321C125.875 479.05 125.659 479.763 125.254 480.369C124.849 480.975 124.273 481.447 123.6 481.726C122.926 482.005 122.185 482.078 121.47 481.935C120.755 481.793 120.098 481.442 119.583 480.927C119.067 480.412 118.716 479.755 118.574 479.04C118.431 478.325 118.504 477.584 118.783 476.911C119.062 476.238 119.535 475.662 120.141 475.257C120.747 474.852 121.46 474.636 122.189 474.636C123.167 474.636 124.104 475.024 124.796 475.715C125.487 476.407 125.875 477.344 125.875 478.321Z" fill="#B9AFAA"/>
<path d="M188.382 418.066H135.323C134.695 418.066 134.072 417.942 133.491 417.702C132.911 417.461 132.383 417.108 131.939 416.664C131.494 416.219 131.142 415.691 130.902 415.11C130.662 414.53 130.538 413.907 130.539 413.279C130.539 412.651 130.663 412.029 130.903 411.449C131.144 410.869 131.496 410.342 131.94 409.898C132.385 409.454 132.912 409.102 133.493 408.862C134.073 408.623 134.695 408.499 135.323 408.5H188.382C189.01 408.499 189.632 408.623 190.213 408.862C190.793 409.102 191.321 409.454 191.765 409.898C192.21 410.342 192.562 410.869 192.803 411.449C193.043 412.029 193.167 412.651 193.167 413.279C193.168 413.907 193.044 414.53 192.804 415.11C192.564 415.691 192.212 416.219 191.767 416.664C191.323 417.108 190.795 417.461 190.214 417.702C189.634 417.942 189.011 418.066 188.382 418.066Z" fill="#DCD0C8"/>
<path d="M304.414 368.294H300.844V478.326H304.414V368.294Z" fill="#6D6865"/>
<path d="M271.559 279.755H189.793C186.783 279.755 184.343 282.194 184.343 285.203V339.656C184.343 342.665 186.783 345.104 189.793 345.104H271.559C274.569 345.104 277.009 342.665 277.009 339.656V285.203C277.009 282.194 274.569 279.755 271.559 279.755Z" fill="#B2A8A3"/>
<path d="M273.379 283.286H187.973V334.863H273.379V283.286Z" fill="#F4F6FF"/>
<path d="M269.586 339.73C269.586 341.196 268.041 342.383 266.142 342.383C264.243 342.383 262.698 341.196 262.698 339.73C262.698 338.265 264.238 337.074 266.142 337.074C268.045 337.074 269.586 338.265 269.586 339.73Z" fill="#8C8480"/>
<path d="M249.861 362.12V360.952C249.861 360.952 248.223 353.717 236.657 353.717C225.091 353.717 225.324 362.092 225.324 362.092L249.861 362.12Z" fill="#948C87"/>
<path d="M225.179 354.796C225.179 354.796 227.697 354.601 228.614 354.047C229.531 353.494 235.046 349.785 236.34 350.376C237.634 350.967 246.24 353.633 245.942 354.866C245.644 356.099 244.848 356.006 244.238 355.797C243.629 355.587 237.383 354.261 236.829 354.485C236.829 354.485 242.973 356.723 242.996 358.356C243.019 359.989 241.711 360.389 241.134 361.008C240.557 361.627 239.849 363.162 238.267 363.279C236.685 363.395 228.958 360.71 227.371 360.589C225.784 360.468 222.838 360.687 222.643 360.426C222.447 360.166 225.179 354.796 225.179 354.796Z" fill="#DBA585"/>
<path d="M179.428 312.693C171.418 311.297 162.984 309.263 162.984 309.263L148.062 308.658C148.062 308.658 134.365 311.673 128.98 314.107C128.468 314.34 128.468 326.321 127.062 329.461L131.535 338.888C131.535 338.888 134.118 357.574 134.653 365.875C134.9 369.69 133.955 402.744 133.955 402.744C133.955 402.744 135.296 403.4 145.484 404.526C155.672 405.652 181.112 404.122 181.275 402.921C181.438 401.721 176.346 358.137 176.123 355.881C175.774 352.419 177.124 336.413 177.124 336.413C179.041 338.991 183.933 350.627 189.034 356.164C192.031 359.421 206.883 361.417 209.685 361.511C215.778 361.715 226.906 362.906 227.218 362.339C227.478 361.981 228.186 352.47 227.492 352.237C226.878 352.037 206.236 350.842 200.963 348.05C199.027 347.021 193.242 334.412 193.242 334.412C193.242 334.412 183.849 314.679 179.428 312.693Z" fill="#3E70FF"/>
<path d="M126.387 341.987H148.602C151.385 341.987 154.053 343.092 156.02 345.059C157.988 347.026 159.093 349.693 159.093 352.475V391.308C159.093 394.088 157.988 396.754 156.022 398.72C154.055 400.686 151.388 401.791 148.607 401.791H126.387C125.009 401.792 123.645 401.522 122.372 400.995C121.098 400.469 119.941 399.697 118.966 398.723C117.992 397.75 117.219 396.594 116.691 395.321C116.163 394.049 115.892 392.685 115.892 391.308V352.475C115.892 351.097 116.163 349.733 116.691 348.46C117.218 347.187 117.992 346.031 118.966 345.057C119.941 344.083 121.098 343.311 122.371 342.784C123.645 342.257 125.009 341.986 126.387 341.987Z" fill="#DCD0C8"/>
<path d="M151.441 415.684C145.07 415.684 139.903 413.548 136.082 409.328C127.453 399.799 129.003 383.044 129.073 382.341C129.162 381.73 129.483 381.175 129.97 380.794C130.456 380.412 131.071 380.233 131.687 380.293C132.303 380.353 132.872 380.647 133.276 381.115C133.68 381.583 133.888 382.189 133.857 382.807C133.857 382.993 132.461 398.161 139.657 406.108C142.566 409.314 146.419 410.873 151.441 410.873C152.061 410.9 152.645 411.165 153.074 411.613C153.503 412.061 153.742 412.657 153.742 413.276C153.742 413.896 153.503 414.492 153.074 414.939C152.645 415.387 152.061 415.652 151.441 415.679V415.684Z" fill="#DCD0C8"/>
<path d="M218.263 287.395H194.81C194.378 287.395 194.028 287.745 194.028 288.176V289.34C194.028 289.771 194.378 290.121 194.81 290.121H218.263C218.695 290.121 219.045 289.771 219.045 289.34V288.176C219.045 287.745 218.695 287.395 218.263 287.395Z" fill="#DEDFE6"/>
<path d="M194.805 293.239H218.286C218.494 293.239 218.692 293.321 218.839 293.468C218.986 293.614 219.068 293.813 219.068 294.02V295.184C219.068 295.391 218.986 295.59 218.839 295.736C218.692 295.883 218.494 295.965 218.286 295.965H194.829C194.621 295.965 194.422 295.883 194.276 295.736C194.129 295.59 194.047 295.391 194.047 295.184V294.016C194.047 293.813 194.126 293.618 194.268 293.473C194.409 293.328 194.602 293.244 194.805 293.239Z" fill="#DEDFE6"/>
<path d="M196.653 299.944H216.425C217.122 299.944 217.791 300.221 218.284 300.714C218.777 301.207 219.054 301.875 219.054 302.572V328.135C219.054 328.831 218.778 329.499 218.285 329.991C217.793 330.483 217.125 330.76 216.429 330.76H196.653C195.956 330.76 195.287 330.483 194.794 329.99C194.3 329.497 194.023 328.828 194.023 328.131V302.568C194.023 302.223 194.091 301.881 194.224 301.562C194.356 301.244 194.55 300.954 194.794 300.711C195.038 300.467 195.328 300.274 195.647 300.142C195.966 300.01 196.308 299.943 196.653 299.944Z" fill="#DEDFE6"/>
<path d="M264.489 287.395H228.251C225.956 287.395 224.095 289.255 224.095 291.55V326.605C224.095 328.899 225.956 330.76 228.251 330.76H264.489C266.785 330.76 268.646 328.899 268.646 326.605V291.55C268.646 289.255 266.785 287.395 264.489 287.395Z" fill="#DEDFE6"/>
<path d="M302.906 77.7683C300.729 71.5118 297.335 65.7482 292.919 60.8102C288.502 55.8722 283.151 51.8577 277.174 48.9984C271.197 46.139 264.713 44.4915 258.096 44.1509C251.478 43.8103 244.859 44.7834 238.62 47.0141C232.381 49.2447 226.646 52.6886 221.746 57.1471C216.845 61.6055 212.877 66.9902 210.069 72.9902C207.262 78.9902 205.671 85.4867 205.388 92.1047C205.106 98.7227 206.138 105.331 208.424 111.548C208.801 112.609 209.215 113.656 209.657 114.675C214.862 126.59 224.491 136.02 236.516 140.976C248.54 145.932 262.019 146.027 274.112 141.241C286.205 136.455 295.966 127.162 301.338 115.321C306.711 103.48 307.275 90.0166 302.91 77.7683H302.906ZM268.329 130.071C259.346 133.296 249.472 132.981 240.713 129.192C231.954 125.402 224.965 118.422 221.167 109.669C220.832 108.899 220.522 108.124 220.236 107.342C217.73 100.338 217.358 92.7483 219.167 85.5329C220.976 78.3174 224.885 71.8003 230.399 66.8056C235.913 61.811 242.785 58.5632 250.145 57.4729C257.506 56.3827 265.024 57.499 271.75 60.6806C278.476 63.8623 284.107 68.9664 287.931 75.3475C291.756 81.7286 293.601 89.1 293.234 96.5296C292.867 103.959 290.305 111.113 285.871 117.087C281.437 123.061 275.331 127.586 268.324 130.09L268.329 130.071Z" fill="#72ACFB"/>
<path d="M219.752 83.4495L207.763 79.7272C210.883 69.7697 217.027 61.0302 225.342 54.7219C233.656 48.4135 243.729 44.8491 254.162 44.5234L254.534 57.0862C246.713 57.3336 239.163 60.0075 232.931 64.7372C226.699 69.4669 222.093 76.0179 219.752 83.482V83.4495Z" fill="#385988"/>
<path d="M221.167 109.668L209.653 114.675C209.187 113.656 208.796 112.609 208.419 111.548C204.73 101.291 204.499 90.1088 207.763 79.7086L219.752 83.4309C217.305 91.2289 217.476 99.6134 220.241 107.305C220.527 108.114 220.835 108.902 221.167 109.668Z" fill="#4772B0"/>
<path d="M217.43 127.163C214.234 123.408 211.614 119.199 209.653 114.675L221.167 109.668C222.638 113.059 224.602 116.213 226.994 119.03L217.43 127.163Z" fill="#5886C7"/>
<path d="M331.632 80.8346H322.747V144.1H331.632V80.8346Z" fill="#DEDEDE"/>
<path d="M353.694 93.6905H344.809V144.1H353.694V93.6905Z" fill="#DEDEDE"/>
<path d="M375.755 84.2312H366.87V144.1H375.755V84.2312Z" fill="#DEDEDE"/>
<path d="M397.816 102.908H388.931V144.1H397.816V102.908Z" fill="#DEDEDE"/>
<path d="M419.877 86.1714H410.992V144.1H419.877V86.1714Z" fill="#DEDEDE"/>
<path d="M441.939 77.438H433.054V144.1H441.939V77.438Z" fill="#DEDEDE"/>
<path d="M464 73.7994H455.115V144.1H464V73.7994Z" fill="#DEDEDE"/>
<path d="M331.632 104.411H322.747V144.104H331.632V104.411Z" fill="#3E70FF"/>
<path d="M353.694 112.474H344.809V144.1H353.694V112.474Z" fill="#3E70FF"/>
<path d="M375.755 106.537H366.87V144.1H375.755V106.537Z" fill="#3E70FF"/>
<path d="M397.816 118.258H388.931V144.1H397.816V118.258Z" fill="#3E70FF"/>
<path d="M419.877 107.756H410.992V144.1H419.877V107.756Z" fill="#3E70FF"/>
<path d="M441.939 102.28H433.054V144.1H441.939V102.28Z" fill="#3E70FF"/>
<path d="M464 99.9951H455.115V144.1H464V99.9951Z" fill="#3E70FF"/>
<path d="M488.342 80.8346H479.457V144.1H488.342V80.8346Z" fill="#DEDEDE"/>
<path d="M510.404 93.6905H501.519V144.1H510.404V93.6905Z" fill="#DEDEDE"/>
<path d="M532.465 84.2312H523.58V144.1H532.465V84.2312Z" fill="#DEDEDE"/>
<path d="M554.526 102.908H545.641V144.1H554.526V102.908Z" fill="#DEDEDE"/>
<path d="M488.342 104.411H479.457V144.104H488.342V104.411Z" fill="#3E70FF"/>
<path d="M510.404 112.474H501.519V144.1H510.404V112.474Z" fill="#3E70FF"/>
<path d="M532.465 106.537H523.58V144.1H532.465V106.537Z" fill="#3E70FF"/>
<path d="M554.526 118.258H545.641V144.1H554.526V118.258Z" fill="#3E70FF"/>
<path d="M551.147 49.5858L321.202 49.5858C320.304 49.5858 319.444 49.2294 318.809 48.595C318.175 47.9607 317.818 47.1003 317.818 46.2031V43.9279C317.818 43.0308 318.175 42.1704 318.809 41.536C319.444 40.9016 320.304 40.5452 321.202 40.5452L551.147 40.5452C552.043 40.5452 552.903 40.9011 553.536 41.5346C554.17 42.1681 554.526 43.0273 554.526 43.9232V46.1985C554.526 47.0956 554.17 47.956 553.535 48.5904C552.901 49.2248 552.04 49.5811 551.143 49.5811L551.147 49.5858Z" fill="#72ACFB"/>
<path d="M551.147 65.3498L321.202 65.3498C320.304 65.3498 319.444 64.9934 318.809 64.359C318.175 63.7246 317.818 62.8642 317.818 61.9671V59.6919C317.818 58.7947 318.175 57.9343 318.809 57.3C319.444 56.6656 320.304 56.3092 321.202 56.3092L551.147 56.3092C552.043 56.3092 552.903 56.6651 553.536 57.2986C554.17 57.9321 554.526 58.7913 554.526 59.6872V61.9625C554.527 62.4067 554.44 62.8467 554.27 63.2573C554.101 63.6679 553.852 64.0412 553.538 64.3557C553.225 64.6703 552.852 64.9199 552.442 65.0905C552.031 65.2611 551.591 65.3492 551.147 65.3498Z" fill="#BFD4FC"/>
<g style="mix-blend-mode:hard-light">
<path d="M378.761 171H465.023C467.879 171 470.617 171.674 472.636 172.874C474.655 174.074 475.789 175.701 475.789 177.398V273.328C475.789 275.025 474.655 276.652 472.636 277.852C470.617 279.052 467.879 279.726 465.023 279.726H378.765C375.91 279.726 373.172 279.052 371.153 277.852C369.134 276.652 368 275.025 368 273.328V177.398C367.999 176.558 368.277 175.726 368.818 174.95C369.358 174.174 370.151 173.468 371.15 172.874C372.149 172.28 373.336 171.809 374.642 171.487C375.948 171.166 377.347 171 378.761 171Z" fill="#F4F4F4"/>
</g>
<path d="M375.977 205.927H375.507V266.377H375.977V205.927Z" fill="#72ACFB"/>
<path d="M398.9 205.927H398.43V266.377H398.9V205.927Z" fill="#72ACFB"/>
<path d="M421.827 205.927H421.357V266.377H421.827V205.927Z" fill="#72ACFB"/>
<path d="M444.754 205.927H444.284V266.377H444.754V205.927Z" fill="#72ACFB"/>
<path d="M467.676 206.927H467.206V267.377H467.676V206.927Z" fill="#72ACFB"/>
<path d="M375.74 242.87C375.74 242.87 385.081 250.734 394.11 241.419C403.14 232.104 413.551 228.991 422.758 236.836C431.964 244.68 435.548 233.914 444.754 225.092C453.96 216.27 453.811 211.249 467.443 211.249V267.382H375.754L375.74 242.87Z" fill="url(#paint9_linear_143_519)"/>
<path d="M404.364 200.892H398.667V203.093H404.364V200.892Z" fill="#72ACFB"/>
<path d="M383.261 200.892H375.507V203.093H383.261V200.892Z" fill="#72ACFB"/>
<path d="M428.613 200.892H421.594V203.093H428.613V200.892Z" fill="#72ACFB"/>
<path d="M451.302 200.892H444.284V203.093H451.302V200.892Z" fill="#72ACFB"/>
<path d="M467.439 200.892H460.42V203.093H467.439V200.892Z" fill="#72ACFB"/>
<g style="mix-blend-mode:hard-light">
<path d="M551.813 170.472H484.195C482.697 170.472 481.482 171.687 481.482 173.185V219.821C481.482 221.319 482.697 222.534 484.195 222.534H551.813C553.311 222.534 554.526 221.319 554.526 219.821V173.185C554.526 171.687 553.311 170.472 551.813 170.472Z" fill="#F4F4F4"/>
</g>
<path d="M511.358 184.203H488.901C488.063 184.203 487.383 184.882 487.383 185.72V186.399C487.383 187.237 488.063 187.916 488.901 187.916H511.358C512.196 187.916 512.875 187.237 512.875 186.399V185.72C512.875 184.882 512.196 184.203 511.358 184.203Z" fill="url(#paint10_linear_143_519)"/>
<path d="M488.724 175.805H506.014C506.371 175.805 506.713 175.946 506.966 176.198C507.218 176.451 507.359 176.793 507.359 177.149V178.173C507.359 178.53 507.218 178.872 506.966 179.124C506.713 179.376 506.371 179.518 506.014 179.518H488.724C488.368 179.518 488.027 179.376 487.776 179.125C487.525 178.874 487.383 178.533 487.383 178.178V177.149C487.383 176.973 487.417 176.798 487.484 176.635C487.551 176.472 487.65 176.324 487.774 176.199C487.899 176.074 488.047 175.975 488.21 175.907C488.373 175.839 488.547 175.805 488.724 175.805Z" fill="url(#paint11_linear_143_519)"/>
<path d="M487.383 215.34L502.156 200.572L506.568 204.987L522.779 188.777L529.975 195.97L548.797 177.154V215.34H487.383Z" fill="#72ACFB"/>
<path d="M548.629 215.34V186.06L529.216 205.467L522.263 198.515L510.669 210.101L501.881 206.611L487.383 215.34H548.629Z" fill="#558AD8"/>
</g>
<defs>
<linearGradient id="paint0_linear_143_519" x1="89.972" y1="466.475" x2="606.762" y2="168.015" gradientUnits="userSpaceOnUse">
<stop stop-color="#6076FA"/>
<stop offset="1" stop-color="#81D3E4"/>
</linearGradient>
<linearGradient id="paint1_linear_143_519" x1="194.219" y1="404.703" x2="545.186" y2="53.6301" gradientUnits="userSpaceOnUse">
<stop stop-color="#81D3E4"/>
<stop offset="1" stop-color="#6076FA"/>
</linearGradient>
<linearGradient id="paint2_linear_143_519" x1="368.266" y1="310.361" x2="161.471" y2="310.361" gradientUnits="userSpaceOnUse">
<stop stop-color="#EEBE63"/>
<stop offset="1" stop-color="#DC3B57"/>
</linearGradient>
<linearGradient id="paint3_linear_143_519" x1="368.271" y1="321.663" x2="161.471" y2="321.663" gradientUnits="userSpaceOnUse">
<stop stop-color="#EEBE63"/>
<stop offset="1" stop-color="#DC3B57"/>
</linearGradient>
<linearGradient id="paint4_linear_143_519" x1="368.266" y1="332.97" x2="161.471" y2="332.97" gradientUnits="userSpaceOnUse">
<stop stop-color="#EEBE63"/>
<stop offset="1" stop-color="#DC3B57"/>
</linearGradient>
<linearGradient id="paint5_linear_143_519" x1="58.2763" y1="351.954" x2="133.406" y2="351.954" gradientUnits="userSpaceOnUse">
<stop stop-color="#81D3E4"/>
<stop offset="1" stop-color="#6076FA"/>
</linearGradient>
<linearGradient id="paint6_linear_143_519" x1="113.388" y1="393.862" x2="181.331" y2="393.862" gradientUnits="userSpaceOnUse">
<stop stop-color="#81D3E4"/>
<stop offset="1" stop-color="#6076FA"/>
</linearGradient>
<linearGradient id="paint7_linear_143_519" x1="119.196" y1="403.74" x2="170.189" y2="403.74" gradientUnits="userSpaceOnUse">
<stop stop-color="#81D3E4"/>
<stop offset="1" stop-color="#6076FA"/>
</linearGradient>
<linearGradient id="paint8_linear_143_519" x1="100.779" y1="362.716" x2="160.168" y2="362.716" gradientUnits="userSpaceOnUse">
<stop stop-color="#81D3E4"/>
<stop offset="1" stop-color="#6076FA"/>
</linearGradient>
<linearGradient id="paint9_linear_143_519" x1="375.74" y1="239.316" x2="467.443" y2="239.316" gradientUnits="userSpaceOnUse">
<stop stop-color="#81D3E4"/>
<stop offset="1" stop-color="#6076FA"/>
</linearGradient>
<linearGradient id="paint10_linear_143_519" x1="487.383" y1="186.055" x2="512.875" y2="186.055" gradientUnits="userSpaceOnUse">
<stop stop-color="#72ACFB"/>
<stop offset="1" stop-color="#5286D4"/>
</linearGradient>
<linearGradient id="paint11_linear_143_519" x1="487.383" y1="177.656" x2="507.359" y2="177.656" gradientUnits="userSpaceOnUse">
<stop stop-color="#72ACFB"/>
<stop offset="1" stop-color="#5286D4"/>
</linearGradient>
<clipPath id="clip0_143_519">
<rect width="692" height="553" fill="white"/>
</clipPath>
</defs>
</svg>
