<svg width="120" height="120" viewBox="0 0 120 120" fill="none" xmlns="http://www.w3.org/2000/svg">
<g clip-path="url(#clip0_542_2649)">
<g filter="url(#filter0_ii_542_2649)">
<path d="M102.425 17.5775C92.2002 7.3506 78.6261 1.16134 64.201 0.148784C49.7758 -0.863772 35.4704 3.36852 23.9173 12.0668C22.9084 12.8566 22.25 14.0111 22.0839 15.2817C21.9177 16.5523 22.2572 17.8373 23.0291 18.86C23.8009 19.8828 24.9436 20.5614 26.2109 20.7498C27.4782 20.9382 28.7687 20.6214 29.8047 19.8674C34.6376 16.2087 40.0987 13.4646 45.9185 11.7706C56.8076 8.59347 68.4512 9.19478 78.9552 13.4767C89.4591 17.7587 98.2054 25.4694 103.771 35.3544C109.337 45.2394 111.395 56.7171 109.61 67.9204C107.825 79.1237 102.303 89.3934 93.9406 97.0588L87.2036 87.8722C94.736 80.4432 98.9338 70.6141 98.9338 60.0145C98.9316 51.4469 96.1038 43.1193 90.8887 36.3224C85.6737 29.5254 78.3625 24.6388 70.0885 22.4197C61.8145 20.2006 53.0397 20.7732 45.124 24.0485C37.2084 27.3239 30.594 33.1191 26.3061 40.5361C22.0181 47.9531 20.2961 56.5775 21.4068 65.0728C22.5175 73.568 26.399 81.4596 32.4497 87.5245C38.5003 93.5893 46.3823 97.4887 54.8738 98.6182C63.3654 99.7477 71.9924 98.0443 79.4176 93.7721L89.1641 107.043C89.941 108.076 91.0966 108.759 92.3767 108.941C93.6568 109.122 94.9566 108.788 95.9901 108.011C102.869 102.853 108.558 96.2775 112.674 88.729C116.79 81.1805 119.236 72.8355 119.847 64.2591C120.457 55.6828 119.217 47.0755 116.211 39.0201C113.206 30.9647 108.504 23.6495 102.425 17.5698V17.5775ZM80.6098 80.6291C76.8415 84.3904 72.117 87.0502 66.9469 88.321C61.7769 89.5918 56.3579 89.4252 51.2756 87.8393C50.8401 87.7019 44.4031 85.6153 39.3847 80.6291C29.5144 70.8308 31.1479 55.8238 31.3569 54.1437C31.3724 54.0585 31.3975 53.9347 31.4285 53.7837C32.5772 48.2533 35.347 43.1905 39.3847 39.2412C44.8988 33.8644 52.2952 30.8551 59.9963 30.8551C67.6974 30.8551 75.0938 33.8644 80.6079 39.2412C84.8382 43.3783 87.6717 48.7329 88.7132 54.5579C88.7132 54.5579 88.7306 54.738 88.7538 55.0709C88.928 57.3743 89.3673 66.9576 85.6398 73.8795C84.2961 76.3594 82.602 78.6326 80.6098 80.6291Z" fill="url(#paint0_linear_542_2649)"/>
<path d="M19.5646 22.2406C18.5454 21.4442 17.2517 21.0853 15.968 21.2429C14.6842 21.4004 13.5156 22.0615 12.7192 23.0807C7.05612 30.3063 3.1309 38.738 1.2472 47.7235C-0.636497 56.7091 -0.428181 66.0075 1.85604 74.8997C2.18703 76.1449 2.9957 77.2092 4.10651 77.8618C5.21733 78.5143 6.54064 78.7023 7.78921 78.385C9.03778 78.0677 10.1109 77.2708 10.7755 76.1671C11.4402 75.0633 11.6427 73.742 11.3393 72.4898C8.92038 62.9671 9.32385 52.9462 12.5005 43.6488C14.3087 38.3869 16.9806 33.463 20.4065 29.0792C21.2006 28.0603 21.5579 26.7679 21.4001 25.4857C21.2423 24.2035 20.5821 23.0364 19.5646 22.2406Z" fill="url(#paint1_linear_542_2649)"/>
<path d="M33.5342 102.715C26.242 98.1871 20.225 91.8741 16.0521 84.3726C15.4233 83.2419 14.3712 82.4074 13.1272 82.0525C11.8832 81.6977 10.5492 81.8517 9.41864 82.4805C8.28812 83.1094 7.45368 84.1617 7.0989 85.4059C6.74412 86.6501 6.89805 87.9843 7.52683 89.1149C12.4995 98.0685 19.6736 105.605 28.3706 111.013C28.9155 111.364 29.5247 111.602 30.1628 111.716C30.8008 111.829 31.455 111.814 32.0872 111.672C32.7195 111.529 33.3171 111.263 33.8454 110.888C34.3737 110.512 34.8221 110.036 35.1645 109.486C35.5069 108.935 35.7364 108.322 35.8398 107.683C35.9431 107.043 35.9182 106.389 35.7665 105.759C35.6148 105.129 35.3393 104.535 34.9561 104.013C34.5728 103.49 34.0895 103.049 33.5342 102.715Z" fill="url(#paint2_linear_542_2649)"/>
<path d="M59.2086 110.248C56.8414 110.212 54.4796 110.01 52.1406 109.644C49.8112 109.28 47.5107 108.75 45.2566 108.059C44.6439 107.873 44.0007 107.81 43.3635 107.872C42.7263 107.935 42.1078 108.123 41.5431 108.424C40.9785 108.726 40.4788 109.136 40.0725 109.631C39.6663 110.126 39.3616 110.696 39.1757 111.309C38.9897 111.922 38.9263 112.565 38.989 113.202C39.0517 113.84 39.2393 114.458 39.541 115.023C39.8427 115.588 40.2527 116.087 40.7476 116.494C41.2425 116.9 41.8125 117.205 42.4251 117.391C45.1189 118.214 47.8675 118.846 50.6504 119.282C53.4448 119.718 56.2664 119.958 59.0944 120C59.7346 120.007 60.37 119.889 60.9644 119.651C61.5587 119.413 62.1004 119.06 62.5584 118.612C63.0164 118.165 63.3818 117.631 63.6337 117.043C63.8856 116.454 64.0191 115.821 64.0266 115.181C64.0341 114.541 63.9155 113.905 63.6774 113.311C63.4393 112.716 63.0865 112.175 62.6391 111.717C62.1917 111.259 61.6585 110.893 61.0699 110.641C60.4812 110.389 59.8488 110.256 59.2086 110.248Z" fill="url(#paint3_linear_542_2649)"/>
<path d="M78.2661 106.818C77.3874 107.163 76.503 107.48 75.6127 107.771C74.4031 108.158 73.2206 108.495 72.0091 108.798C70.7515 109.113 69.6703 109.914 69.0034 111.026C68.3365 112.137 68.1384 113.469 68.4528 114.726C68.7672 115.984 69.5683 117.065 70.6798 117.732C71.7914 118.399 73.1223 118.597 74.3799 118.283C75.7888 117.931 77.2423 117.518 78.6377 117.066C79.7215 116.711 80.7859 116.328 81.8271 115.923C82.9876 115.42 83.9076 114.486 84.3936 113.318C84.8795 112.149 84.8936 110.838 84.4329 109.66C83.9721 108.482 83.0725 107.528 81.9231 106.999C80.7737 106.471 79.4642 106.409 78.2699 106.826L78.2661 106.818Z" fill="url(#paint4_linear_542_2649)"/>
</g>
<path d="M84.2038 65.1053C84.2027 67.3416 83.6161 69.5386 82.5024 71.4777C81.3887 73.4168 79.7866 75.0304 77.8557 76.158C75.9248 77.2856 73.7324 77.8878 71.4965 77.9048C69.2606 77.9217 67.0593 77.3528 65.1115 76.2546C63.8021 77.216 62.245 77.7828 60.6241 77.8881C59.0031 77.9934 57.3858 77.6328 55.9631 76.8488C54.1979 77.5522 52.3144 77.911 50.4144 77.9057C42.3536 77.9057 35.7947 71.5452 35.7947 63.7252C35.7947 55.9052 42.3536 49.5447 50.4144 49.5447C52.0097 46.8803 54.3765 44.7633 57.2014 43.4741C60.0263 42.1848 63.1762 41.784 66.2339 42.3248C69.2916 42.8656 72.113 44.3224 74.3245 46.5024C76.536 48.6824 78.0334 51.4828 78.6184 54.5328C80.3454 55.7013 81.7583 57.277 82.7324 59.1208C83.7065 60.9646 84.2118 63.0199 84.2038 65.1053ZM64.9934 72.9717C65.2906 72.9725 65.5807 73.0629 65.8256 73.2311C66.9121 74.0106 68.1455 74.5612 69.4512 74.8495C70.7568 75.1378 72.1074 75.1578 73.421 74.9083C74.7346 74.6587 75.9838 74.1449 77.0928 73.3978C78.2018 72.6508 79.1475 71.6862 79.8725 70.5626C80.5975 69.439 81.0867 68.1798 81.3104 66.8613C81.534 65.5429 81.4875 64.1928 81.1737 62.8929C80.8599 61.5929 80.2853 60.3704 79.4847 59.2993C78.6841 58.2282 77.6743 57.331 76.5166 56.662C76.3314 56.55 76.1734 56.3984 76.054 56.218C75.9345 56.0375 75.8565 55.8329 75.8256 55.6187C75.4481 53.0226 74.2562 50.6135 72.4218 48.7383C70.5874 46.8632 68.2052 45.6189 65.6183 45.1847C63.0315 44.7505 60.3736 45.1489 58.0276 46.3224C55.6817 47.4959 53.7688 49.3839 52.5646 51.7145C52.4343 51.9673 52.233 52.1766 51.9855 52.3166C51.7379 52.4565 51.4549 52.5211 51.1711 52.5023C50.8808 52.4849 50.6408 52.4772 50.4144 52.4772C43.9735 52.4772 38.7326 57.5098 38.7326 63.7194C38.7326 69.9289 43.9735 74.9635 50.4144 74.9635C52.1591 74.9687 53.8838 74.5921 55.4676 73.8602C55.699 73.7527 55.9544 73.7074 56.2086 73.7288C56.4628 73.7502 56.707 73.8375 56.9172 73.9821C57.9787 74.7131 59.2609 75.0529 60.5451 74.9434C61.8292 74.834 63.0355 74.2821 63.958 73.3821C64.2363 73.1152 64.6079 72.9679 64.9934 72.9717Z" fill="#2F80ED"/>
<path d="M52.3205 58.5317H50.1374C50.0506 58.5317 49.9674 58.5662 49.9061 58.6276C49.8448 58.6889 49.8103 58.7721 49.8103 58.8589V63.9902L52.6417 61.1565V58.8589C52.6423 58.7729 52.6088 58.6903 52.5486 58.629C52.4884 58.5677 52.4064 58.5328 52.3205 58.5317Z" fill="#2F80ED"/>
<path d="M61.264 56.1373C60.9316 55.8057 60.4813 55.6194 60.0118 55.6194C59.5423 55.6194 59.092 55.8057 58.7596 56.1373L53.2013 61.6946L52.6477 62.2462L49.8163 65.08L43.3174 71.5663C45.0507 72.8346 47.0915 73.6164 49.2284 73.8308C51.3654 74.0453 53.5208 73.6845 55.4714 72.7858C55.7031 72.6791 55.9585 72.6345 56.2126 72.6562C56.4667 72.6779 56.7108 72.7652 56.921 72.9096C57.9825 73.6406 59.2648 73.9804 60.5489 73.871C61.833 73.7615 63.0393 73.2097 63.9619 72.3096C64.2368 72.0429 64.6046 71.8937 64.9876 71.8934C65.285 71.893 65.5754 71.9835 65.8198 72.1528C67.491 73.3051 69.4777 73.9121 71.5075 73.8907C73.5373 73.8692 75.5107 73.2202 77.1571 72.0328L61.264 56.1373ZM59.8802 69.5068C59.8797 69.5732 59.8529 69.6367 59.8058 69.6835C59.7587 69.7303 59.695 69.7565 59.6286 69.7565H57.5887C57.5225 69.7565 57.459 69.7302 57.4122 69.6834C57.3654 69.6365 57.3391 69.573 57.3391 69.5068V67.4666C57.3391 67.4002 57.3653 67.3365 57.4121 67.2894C57.4588 67.2423 57.5223 67.2155 57.5887 67.215H59.6286C59.6953 67.215 59.7593 67.2415 59.8065 67.2887C59.8537 67.3359 59.8802 67.3999 59.8802 67.4666V69.5068ZM59.8802 66.4098C59.8802 66.4765 59.8537 66.5405 59.8065 66.5877C59.7593 66.6349 59.6953 66.6614 59.6286 66.6614H57.5887C57.5223 66.6609 57.4588 66.6342 57.4121 66.587C57.3653 66.5399 57.3391 66.4762 57.3391 66.4098V64.3696C57.3391 64.3032 57.3653 64.2395 57.4121 64.1924C57.4588 64.1452 57.5223 64.1185 57.5887 64.118H59.6286C59.6953 64.118 59.7593 64.1445 59.8065 64.1917C59.8537 64.2389 59.8802 64.3029 59.8802 64.3696V66.4098ZM63.1509 69.5068C63.1504 69.5732 63.1237 69.6367 63.0766 69.6835C63.0294 69.7303 62.9657 69.7565 62.8993 69.7565H60.8614C60.795 69.7565 60.7313 69.7303 60.6842 69.6835C60.6371 69.6367 60.6103 69.5732 60.6098 69.5068V67.4666C60.6098 67.3999 60.6363 67.3359 60.6835 67.2887C60.7307 67.2415 60.7947 67.215 60.8614 67.215H62.8993C62.9661 67.215 63.0301 67.2415 63.0773 67.2887C63.1244 67.3359 63.1509 67.3999 63.1509 67.4666V69.5068ZM63.1509 66.4098C63.1509 66.4765 63.1244 66.5405 63.0773 66.5877C63.0301 66.6349 62.9661 66.6614 62.8993 66.6614H60.8614C60.7947 66.6614 60.7307 66.6349 60.6835 66.5877C60.6363 66.5405 60.6098 66.4765 60.6098 66.4098V64.3696C60.6098 64.3029 60.6363 64.2389 60.6835 64.1917C60.7307 64.1445 60.7947 64.118 60.8614 64.118H62.8993C62.9661 64.118 63.0301 64.1445 63.0773 64.1917C63.1244 64.2389 63.1509 64.3029 63.1509 64.3696V66.4098Z" fill="#2F80ED"/>
</g>
<defs>
<filter id="filter0_ii_542_2649" x="-12.0264" y="-11.9985" width="144.024" height="139.999" filterUnits="userSpaceOnUse" color-interpolation-filters="sRGB">
<feFlood flood-opacity="0" result="BackgroundImageFix"/>
<feBlend mode="normal" in="SourceGraphic" in2="BackgroundImageFix" result="shape"/>
<feColorMatrix in="SourceAlpha" type="matrix" values="0 0 0 0 0 0 0 0 0 0 0 0 0 0 0 0 0 0 127 0" result="hardAlpha"/>
<feOffset dx="12" dy="8"/>
<feGaussianBlur stdDeviation="8"/>
<feComposite in2="hardAlpha" operator="arithmetic" k2="-1" k3="1"/>
<feColorMatrix type="matrix" values="0 0 0 0 0.184314 0 0 0 0 0.501961 0 0 0 0 0.929412 0 0 0 0.17 0"/>
<feBlend mode="normal" in2="shape" result="effect1_innerShadow_542_2649"/>
<feColorMatrix in="SourceAlpha" type="matrix" values="0 0 0 0 0 0 0 0 0 0 0 0 0 0 0 0 0 0 127 0" result="hardAlpha"/>
<feOffset dx="-12" dy="-12"/>
<feGaussianBlur stdDeviation="8"/>
<feComposite in2="hardAlpha" operator="arithmetic" k2="-1" k3="1"/>
<feColorMatrix type="matrix" values="0 0 0 0 0.184314 0 0 0 0 0.501961 0 0 0 0 0.929412 0 0 0 0.2 0"/>
<feBlend mode="normal" in2="effect1_innerShadow_542_2649" result="effect2_innerShadow_542_2649"/>
</filter>
<linearGradient id="paint0_linear_542_2649" x1="70.538" y1="0.00146484" x2="70.538" y2="108.989" gradientUnits="userSpaceOnUse">
<stop stop-color="#A1C6F7"/>
<stop offset="0.966346" stop-color="#438CEF"/>
</linearGradient>
<linearGradient id="paint1_linear_542_2649" x1="10.7051" y1="21.2065" x2="10.7051" y2="78.5357" gradientUnits="userSpaceOnUse">
<stop stop-color="#A1C6F7"/>
<stop offset="0.966346" stop-color="#438CEF"/>
</linearGradient>
<linearGradient id="paint2_linear_542_2649" x1="21.4071" y1="81.8655" x2="21.4071" y2="111.791" gradientUnits="userSpaceOnUse">
<stop stop-color="#A1C6F7"/>
<stop offset="0.966346" stop-color="#438CEF"/>
</linearGradient>
<linearGradient id="paint3_linear_542_2649" x1="51.4963" y1="107.849" x2="51.4963" y2="120" gradientUnits="userSpaceOnUse">
<stop stop-color="#A1C6F7"/>
<stop offset="0.966346" stop-color="#438CEF"/>
</linearGradient>
<linearGradient id="paint4_linear_542_2649" x1="76.5377" y1="106.552" x2="76.5377" y2="118.429" gradientUnits="userSpaceOnUse">
<stop stop-color="#A1C6F7"/>
<stop offset="0.966346" stop-color="#438CEF"/>
</linearGradient>
<clipPath id="clip0_542_2649">
<rect width="120" height="120" fill="white"/>
</clipPath>
</defs>
</svg>
